Godzilla.Vs.Monster.Zero.1970.XviD-NvadR 
http://www.imdb.com/title/tt0059346/

Astronaut pals F. Glenn (Nick Adams) and K. Fuji 
(Akira Takarada) discover aliens living on Planet X. 
The "Xians" are forced to live underground because 
the ferocious Monster Zero (that's King Ghidorah to 
us puny earthlings) has command of the planet's surface. 

The Xians ask for permission to transport Godzilla and 
Rodan to Planet X to defeat the three-headed dragon; in 
the spirit of friendly reciprocity they offer a modest 
trinket -- a cure for cancer. With the approval of 
Earth's diplomats, the Xians pack Earth's giant monsters 
into force-field bubbles and haul them off to fight ... 
but the trusting Earthmen don't realize that it's all a 
sneaky plan to use the giant beasts to conquer our planet!

--------------- SCREENSHOTS ---------------- 
http://www.postimg.com/41000/photo-40266.jpg
 
http://www.postimg.com/41000/photo-40267.jpg
 
http://www.postimg.com/41000/photo-40268.jpg
 
http://www.postimg.com/41000/photo-40269.jpg
 
http://www.postimg.com/41000/photo-40270.jpg
 
http://www.postimg.com/41000/photo-40271.jpg
--------------------------------------------

   General

      Complete name : Godzilla.Vs.Monster.Zero.1970.XviD-NvadR.avi
      Edition : Saperstein Edit
      Format : AVI
      Format/Info : Audio Video Interleave
      File size : 699 MiB
      Duration : 1h 33mn
      Overall bit rate : 1 050 Kbps
      Writing application : VirtualDubMod 1.5.10.2 (build 2542/release)
      Writing library : VirtualDubMod build 2542/release

   Video 

      Format : MPEG-4 Visual
      Format profile : AdvancedSimple@L5
      Format settings, BVOP : Yes
      Format settings, QPel : No
      Format settings, GMC : No warppoints
      Format settings, Matrix : Default (H.263)
      Muxing mode : Packed bitstream
      Codec ID : XVID
      Codec ID/Hint : XviD
      Duration : 1h 33mn
      Bit rate : 960 Kbps
      Width : 640 pixels
      Height : 272 pixels
      Display aspect ratio : 2.35:1
      Frame rate : 23.976 fps
      Resolution : 24 bits
      Colorimetry : 4:2:0
      Scan type : Progressive
      Bits/(Pixel*Frame) : 0.230
      Stream size : 639 MiB (91%)
      Writing library : XviD 1.2.1 (UTC 2008-12-04)

   Audio
 
      Language : English
      Subtitles : None
      Format : AC-3
      Format/Info : Audio Coding 3
      Codec ID : 2000
      Duration : 1h 33mn
      Bit rate mode : Constant
      Bit rate : 80.0 Kbps
      Channel(s) : 2 channels
      Channel positions : L R
      Sampling rate : 48.0 KHz
      Stream size : 53.3 MiB (8%)
      Alignment : Aligned on interleaves
      Interleave, duration : 42 ms (1.00 video frame)
      Interleave, preload duration : 512 ms

   Source
  
      Region 2 (Japan) DVD9 (NTSC) 720 x 480 29.970 fps 2.35:1
      Color AC3 Digital Dolby 2CH Stereo 192 Kb/s 48.0 KHz

   Note

      Beginning Credits Converted from 1.85:1 to 2.35:1 to match the
      other 98% of the movie. (Classic Media Goofed Bigtime!)
      All black borders removed.  All Production Logo's Removed.
      
-------------- TORRENT STATS ------------- 
http://torrent-stats.info/b144/fc633e34.png